<svg width="24" height="24" viewBox="0 0 24 24" fill="none" xmlns="http://www.w3.org/2000/svg">
<path opacity="0.8" d="M12 9.42857C10.6267 9.42857 9.50313 10.5857 9.50313 12C9.50313 13.4143 10.6267 14.5714 12 14.5714C13.3733 14.5714 14.4969 13.4143 14.4969 12C14.4969 10.5857 13.3733 9.42857 12 9.42857ZM18.5543 12C18.5543 12.2957 18.5293 12.5914 18.4918 12.8743L20.3395 14.3657C20.5018 14.5071 20.5518 14.7514 20.4394 14.9443L18.6916 18.0557C18.5792 18.2486 18.3545 18.3257 18.1548 18.2486L15.9825 17.3486C15.5331 17.7086 15.0337 18.0043 14.5093 18.2357L14.1848 20.6143C14.1473 20.8329 13.96 21 13.7478 21H10.2522C10.04 21 9.8527 20.8329 9.81524 20.6271L9.49065 18.2486C8.95382 18.0171 8.46694 17.7214 8.0175 17.3614L5.84523 18.2614C5.64548 18.3386 5.42076 18.2614 5.3084 18.0686L3.5606 14.9571C3.44824 14.7643 3.49818 14.52 3.66047 14.3786L5.50815 12.8871C5.4707 12.5914 5.44573 12.2957 5.44573 12C5.44573 11.7043 5.4707 11.4086 5.50815 11.1257L3.66047 9.63429C3.49818 9.49286 3.44824 9.24857 3.5606 9.05571L5.3084 5.94429C5.42076 5.75143 5.64548 5.67429 5.84523 5.75143L8.0175 6.65143C8.46694 6.29143 8.96631 5.99571 9.49065 5.76429L9.81524 3.38571C9.8527 3.16714 10.04 3 10.2522 3H13.7478C13.96 3 14.1473 3.16714 14.1848 3.37286L14.5093 5.75143C15.0462 5.98286 15.5331 6.27857 15.9825 6.63857L18.1548 5.73857C18.3545 5.66143 18.5792 5.73857 18.6916 5.93143L20.4394 9.04286C20.5518 9.23571 20.5018 9.48 20.3395 9.62143L18.4918 11.1129C18.5293 11.4086 18.5543 11.7043 18.5543 12Z" fill="#C4C4C4"/>
</svg>
